<svg xmlns="http://www.w3.org/2000/svg" width="51.674" height="56.001" viewBox="0 0 51.674 56.001">
  <defs>
    <style>
      .cls-1 {
        fill: #fff;
      }
    </style>
  </defs>
  <g id="namaste" transform="translate(-19.781)">
    <path id="Path_18" data-name="Path 18" class="cls-1" d="M38.965,25.631V37.1H35.793V25.345a5.709,5.709,0,0,1,5.6-5.7l2.631-9.256a10.676,10.676,0,0,0-1.736-9.335L41.5,0,29.571,24.616v17.5L19.781,56h18.2l4.336-6.408a9.944,9.944,0,0,0,1.708-5.573V25.631a2.532,2.532,0,1,0-5.064,0Z" transform="translate(0 0)"/>
    <path id="Path_19" data-name="Path 19" class="cls-1" d="M281.713,42.118v-17.5L269.787,0,269,1.052a10.677,10.677,0,0,0-1.736,9.335l2.631,9.256a5.709,5.709,0,0,1,5.6,5.7V37.1h-3.172V25.631a2.532,2.532,0,1,0-5.064,0V44.02a9.944,9.944,0,0,0,1.708,5.573L273.3,56h18.2Z" transform="translate(-220.048)"/>
  </g>
</svg>
