<svg xmlns="http://www.w3.org/2000/svg" width="16.16" height="23.501" viewBox="0 0 16.16 23.501">
  <defs>
    <style>
      .cls-1 {
        fill: #fff;
      }
    </style>
  </defs>
  <path id="Trazado_35" data-name="Trazado 35" class="cls-1" d="M95.005,4.024A7.975,7.975,0,0,0,88.228,0c-.12,0-.241,0-.362,0A7.975,7.975,0,0,0,81.09,4.024a8.182,8.182,0,0,0-.107,8.084l5.828,10.667.008.014a1.417,1.417,0,0,0,2.457,0l.008-.014,5.828-10.667a8.182,8.182,0,0,0-.107-8.084Zm-6.958,6.625a3.3,3.3,0,1,1,3.3-3.3A3.309,3.309,0,0,1,88.048,10.649Z" transform="translate(-79.968 0)"/>
</svg>
