<svg id="Componente_11_1" data-name="Componente 11 – 1" xmlns="http://www.w3.org/2000/svg" width="21.232" height="15.924" viewBox="0 0 21.232 15.924">
  <defs>
    <style>
      .cls-1 {
        fill: #fff;
      }
    </style>
  </defs>
  <path id="Trazado_32" data-name="Trazado 32" class="cls-1" d="M7.07,65.292C9.984,67.76,15.1,72.1,16.6,73.455a.888.888,0,0,0,1.284,0c1.5-1.355,6.617-5.7,9.531-8.165a.442.442,0,0,0,.062-.61A1.757,1.757,0,0,0,26.09,64H8.4a1.756,1.756,0,0,0-1.388.682A.442.442,0,0,0,7.07,65.292Z" transform="translate(-6.627 -64)"/>
  <path id="Trazado_33" data-name="Trazado 33" class="cls-1" d="M20.975,126.453a.44.44,0,0,0-.472.064c-3.232,2.74-7.356,6.251-8.654,7.42a1.791,1.791,0,0,1-2.469,0C8,132.69,3.366,128.753.728,126.517a.442.442,0,0,0-.728.337v11.124a1.771,1.771,0,0,0,1.769,1.769H19.463a1.771,1.771,0,0,0,1.769-1.769V126.854A.442.442,0,0,0,20.975,126.453Z" transform="translate(0 -123.824)"/>
  <path id="Trazado_33" data-name="Trazado 33" class="cls-1" d="M20.975,126.453a.44.44,0,0,0-.472.064c-3.232,2.74-7.356,6.251-8.654,7.42a1.791,1.791,0,0,1-2.469,0C8,132.69,3.366,128.753.728,126.517a.442.442,0,0,0-.728.337v11.124a1.771,1.771,0,0,0,1.769,1.769H19.463a1.771,1.771,0,0,0,1.769-1.769V126.854A.442.442,0,0,0,20.975,126.453Z" transform="translate(0 -123.824)"/>
  <path id="Trazado_33" data-name="Trazado 33" class="cls-1" d="M20.975,126.453a.44.44,0,0,0-.472.064c-3.232,2.74-7.356,6.251-8.654,7.42a1.791,1.791,0,0,1-2.469,0C8,132.69,3.366,128.753.728,126.517a.442.442,0,0,0-.728.337v11.124a1.771,1.771,0,0,0,1.769,1.769H19.463a1.771,1.771,0,0,0,1.769-1.769V126.854A.442.442,0,0,0,20.975,126.453Z" transform="translate(0 -123.824)"/>
  <path id="Trazado_33" data-name="Trazado 33" class="cls-1" d="M20.975,126.453a.44.44,0,0,0-.472.064c-3.232,2.74-7.356,6.251-8.654,7.42a1.791,1.791,0,0,1-2.469,0C8,132.69,3.366,128.753.728,126.517a.442.442,0,0,0-.728.337v11.124a1.771,1.771,0,0,0,1.769,1.769H19.463a1.771,1.771,0,0,0,1.769-1.769V126.854A.442.442,0,0,0,20.975,126.453Z" transform="translate(0 -123.824)"/>
  <path id="Trazado_33" data-name="Trazado 33" class="cls-1" d="M20.975,126.453a.44.44,0,0,0-.472.064c-3.232,2.74-7.356,6.251-8.654,7.42a1.791,1.791,0,0,1-2.469,0C8,132.69,3.366,128.753.728,126.517a.442.442,0,0,0-.728.337v11.124a1.771,1.771,0,0,0,1.769,1.769H19.463a1.771,1.771,0,0,0,1.769-1.769V126.854A.442.442,0,0,0,20.975,126.453Z" transform="translate(0 -123.824)"/>
</svg>
