<svg xmlns="http://www.w3.org/2000/svg" width="18.287" height="18.325" viewBox="0 0 18.287 18.325">
  <defs>
    <style>
      .cls-1 {
        fill: #fff;
      }
    </style>
  </defs>
  <path id="Trazado_34" data-name="Trazado 34" class="cls-1" d="M18.346,13.449l-2.557-2.557a1.7,1.7,0,0,0-2.831.639,1.74,1.74,0,0,1-2.009,1.1A7.886,7.886,0,0,1,6.2,7.877a1.655,1.655,0,0,1,1.1-2.009,1.7,1.7,0,0,0,.639-2.831L5.377.48a1.824,1.824,0,0,0-2.466,0L1.176,2.215c-1.735,1.827.183,6.667,4.475,10.96s9.133,6.3,10.96,4.475l1.735-1.735A1.824,1.824,0,0,0,18.346,13.449Z" transform="translate(-0.539 0)"/>
</svg>
