<svg id="united-kingdom" xmlns="http://www.w3.org/2000/svg" width="35.603" height="23.736" viewBox="0 0 35.603 23.736">
  <rect id="Rectángulo_86" data-name="Rectángulo 86" width="35.603" height="23.736" transform="translate(0 0)" fill="#f0f0f0"/>
  <path id="Trazado_38" data-name="Trazado 38" d="M20.027,85.33h-4.45v9.643H0v4.45H15.576v9.643h4.45V99.423H35.6v-4.45H20.027Z" transform="translate(0 -85.33)" fill="#d80027"/>
  <g id="Grupo_21" data-name="Grupo 21" transform="translate(21.672 15.996)">
    <path id="Trazado_39" data-name="Trazado 39" d="M393.785,315.358l8.22,4.567v-4.567Z" transform="translate(-388.074 -315.358)" fill="#0052b4"/>
    <path id="Trazado_40" data-name="Trazado 40" d="M311.652,315.358l13.932,7.74v-2.189l-9.992-5.551Z" transform="translate(-311.652 -315.358)" fill="#0052b4"/>
    <path id="Trazado_41" data-name="Trazado 41" d="M321.873,350.677,311.652,345v5.679Z" transform="translate(-311.652 -342.937)" fill="#0052b4"/>
  </g>
  <path id="Trazado_42" data-name="Trazado 42" d="M311.652,315.358l13.932,7.74v-2.189l-9.992-5.551Z" transform="translate(-289.98 -299.362)" fill="#f0f0f0"/>
  <path id="Trazado_43" data-name="Trazado 43" d="M311.652,315.358l13.932,7.74v-2.189l-9.992-5.551Z" transform="translate(-289.98 -299.362)" fill="#d80027"/>
  <g id="Grupo_22" data-name="Grupo 22" transform="translate(0 15.996)">
    <path id="Trazado_44" data-name="Trazado 44" d="M6.282,315.356,0,318.846v-3.49Z" transform="translate(0 -315.356)" fill="#0052b4"/>
    <path id="Trazado_45" data-name="Trazado 45" d="M37.65,329.51v6.756H25.491Z" transform="translate(-23.718 -328.526)" fill="#0052b4"/>
  </g>
  <path id="Trazado_46" data-name="Trazado 46" d="M9.992,315.358,0,320.909V323.1H0l13.932-7.74Z" transform="translate(0 -299.362)" fill="#d80027"/>
  <g id="Grupo_23" data-name="Grupo 23" transform="translate(0 0)">
    <path id="Trazado_47" data-name="Trazado 47" d="M8.22,135.525,0,130.958v4.567Z" transform="translate(0 -127.785)" fill="#0052b4"/>
    <path id="Trazado_48" data-name="Trazado 48" d="M13.932,93.07,0,85.33v2.189L9.992,93.07Z" transform="translate(0 -85.33)" fill="#0052b4"/>
    <path id="Trazado_49" data-name="Trazado 49" d="M53.366,85.33l10.221,5.679V85.33Z" transform="translate(-49.655 -85.33)" fill="#0052b4"/>
  </g>
  <path id="Trazado_50" data-name="Trazado 50" d="M13.932,93.07,0,85.33v2.189L9.992,93.07Z" transform="translate(0 -85.33)" fill="#f0f0f0"/>
  <path id="Trazado_51" data-name="Trazado 51" d="M13.932,93.07,0,85.33v2.189L9.992,93.07Z" transform="translate(0 -85.33)" fill="#d80027"/>
  <g id="Grupo_24" data-name="Grupo 24" transform="translate(21.672 0)">
    <path id="Trazado_52" data-name="Trazado 52" d="M421.659,149.936l6.282-3.49v3.49Z" transform="translate(-414.009 -142.196)" fill="#0052b4"/>
    <path id="Trazado_53" data-name="Trazado 53" d="M311.652,92.087V85.331h12.159Z" transform="translate(-311.652 -85.331)" fill="#0052b4"/>
  </g>
  <path id="Trazado_54" data-name="Trazado 54" d="M315.592,93.07l9.992-5.551V85.33h0l-13.932,7.74Z" transform="translate(-289.98 -85.33)" fill="#d80027"/>
</svg>
