<svg xmlns="http://www.w3.org/2000/svg" width="33.897" height="33.897" viewBox="0 0 33.897 33.897">
  <defs>
    <style>
      .cls-1 {
        fill: #fff;
      }
    </style>
  </defs>
  <path id="Trazado_27" data-name="Trazado 27" class="cls-1" d="M24.721,0H9.175A9.186,9.186,0,0,0,0,9.176V24.722A9.186,9.186,0,0,0,9.175,33.9H24.721A9.186,9.186,0,0,0,33.9,24.722V9.176A9.186,9.186,0,0,0,24.721,0ZM16.948,26.217a9.269,9.269,0,1,1,9.269-9.269A9.279,9.279,0,0,1,16.948,26.217Zm9.49-16.351a2.739,2.739,0,1,1,2.739-2.739A2.742,2.742,0,0,1,26.438,9.866Zm0,0" transform="translate(0.001 0)"/>
</svg>
