<svg xmlns="http://www.w3.org/2000/svg" width="37.949" height="30.834" viewBox="0 0 37.949 30.834">
  <defs>
    <style>
      .cls-1 {
        fill: #fff;
      }
    </style>
  </defs>
  <path id="Trazado_30" data-name="Trazado 30" class="cls-1" d="M37.949,51.65a16.221,16.221,0,0,1-4.483,1.229,7.736,7.736,0,0,0,3.423-4.3,15.548,15.548,0,0,1-4.933,1.883A7.779,7.779,0,0,0,18.5,55.782a8.011,8.011,0,0,0,.18,1.774A22.021,22.021,0,0,1,2.642,49.418a7.782,7.782,0,0,0,2.391,10.4,7.683,7.683,0,0,1-3.515-.958v.085a7.816,7.816,0,0,0,6.233,7.644,7.765,7.765,0,0,1-2.04.256,6.879,6.879,0,0,1-1.473-.133,7.854,7.854,0,0,0,7.27,5.42,15.632,15.632,0,0,1-9.646,3.318A14.572,14.572,0,0,1,0,75.342a21.9,21.9,0,0,0,11.935,3.491c14.316,0,22.143-11.859,22.143-22.139,0-.344-.012-.676-.028-1.006A15.52,15.52,0,0,0,37.949,51.65Z" transform="translate(0 -48)"/>
</svg>
