<svg xmlns="http://www.w3.org/2000/svg" width="33.897" height="33.897" viewBox="0 0 33.897 33.897">
  <defs>
    <style>
      .cls-1 {
        fill: #fff;
      }
    </style>
  </defs>
  <path id="Trazado_31" data-name="Trazado 31" class="cls-1" d="M16.953,0h-.008A16.938,16.938,0,0,0,3.227,26.883l-2.112,6.3L7.629,31.1A16.946,16.946,0,1,0,16.953,0Zm9.862,23.934c-.409,1.155-2.032,2.112-3.326,2.392-.886.189-2.042.339-5.936-1.275-4.981-2.063-8.188-7.125-8.438-7.453A9.68,9.68,0,0,1,7.1,12.485,5.411,5.411,0,0,1,8.834,8.36a2.462,2.462,0,0,1,1.733-.608c.21,0,.4.011.568.019.5.021.748.051,1.076.837.409.985,1.4,3.417,1.523,3.667a1.009,1.009,0,0,1,.072.917,2.929,2.929,0,0,1-.549.778c-.25.288-.487.508-.737.818-.229.269-.487.557-.2,1.055a15.044,15.044,0,0,0,2.75,3.417,12.46,12.46,0,0,0,3.974,2.451,1.072,1.072,0,0,0,1.195-.189,20.506,20.506,0,0,0,1.324-1.754.946.946,0,0,1,1.216-.369c.458.159,2.879,1.356,3.377,1.6s.826.369.947.578A4.221,4.221,0,0,1,26.815,23.934Z"/>
</svg>
