<svg xmlns="http://www.w3.org/2000/svg" width="49.924" height="34.955" viewBox="0 0 49.924 34.955">
  <defs>
    <style>
      .cls-1 {
        fill: #fff;
      }
    </style>
  </defs>
  <path id="youtube" class="cls-1" d="M48.9-.612a6.254,6.254,0,0,0-4.4-4.4C40.589-6.082,24.962-6.082,24.962-6.082s-15.627,0-19.533,1.028a6.381,6.381,0,0,0-4.4,4.441C0,3.294,0,11.4,0,11.4S0,19.538,1.029,23.4a6.255,6.255,0,0,0,4.4,4.4c3.948,1.069,19.534,1.069,19.534,1.069s15.627,0,19.533-1.028a6.255,6.255,0,0,0,4.4-4.4c1.028-3.907,1.028-12.008,1.028-12.008S49.965,3.294,48.9-.612ZM19.987,18.88V3.911L32.981,11.4Zm0,0" transform="translate(-0.001 6.082)"/>
</svg>
